<svg width="76" height="82" fill="none" xmlns="http://www.w3.org/2000/svg"><path d="M15.833 58.083h-3.166c-1.68 0-3.29-.72-4.479-2.001-1.187-1.282-1.855-3.02-1.855-4.832V17.083c0-1.812.668-3.55 1.855-4.832 1.188-1.281 2.799-2.001 4.479-2.001h50.666c1.68 0 3.291.72 4.479 2.001 1.187 1.282 1.855 3.02 1.855 4.832V51.25c0 1.812-.668 3.55-1.855 4.832-1.188 1.281-2.799 2.001-4.479 2.001h-3.166" stroke="#000" stroke-width="2" stroke-linecap="round" stroke-linejoin="round"/><path d="m38 51.25 15.833 20.5H22.167L38 51.25Z" stroke="#000" stroke-width="2" stroke-linecap="round" stroke-linejoin="round"/></svg>