<svg width="76" height="82" fill="none" xmlns="http://www.w3.org/2000/svg"><path d="M6.333 27.333V20.5c0-1.812.668-3.55 1.855-4.832 1.188-1.281 2.799-2.001 4.479-2.001h50.666c1.68 0 3.291.72 4.479 2.001 1.187 1.282 1.855 3.02 1.855 4.832v41c0 1.812-.668 3.55-1.855 4.832-1.188 1.281-2.799 2.001-4.479 2.001h-19m-38-13.325c3.043.67 5.836 2.29 8.032 4.66 2.196 2.369 3.698 5.382 4.318 8.665L6.333 55.008Zm0-13.837c6.431.772 12.427 3.881 17.002 8.818 4.576 4.936 7.458 11.406 8.173 18.344L6.333 41.171Zm0 27.162h.031" stroke="#000" stroke-width="2" stroke-linecap="round" stroke-linejoin="round"/></svg>