<svg width="108" height="84" fill="none" xmlns="http://www.w3.org/2000/svg"><path d="M13.5 56V28c.002-1.227.418-2.433 1.208-3.496.79-1.063 1.925-1.945 3.292-2.559l31.5-14c1.368-.614 2.92-.938 4.5-.938s3.132.324 4.5.938l31.5 14c1.367.614 2.502 1.496 3.292 2.56.79 1.062 1.206 2.268 1.208 3.495v28c-.002 1.227-.418 2.433-1.208 3.496-.79 1.063-1.925 1.945-3.292 2.559l-31.5 14c-1.368.614-2.92.938-4.5.938s-3.132-.324-4.5-.938l-31.5-14c-1.367-.614-2.502-1.496-3.292-2.56-.79-1.062-1.206-2.267-1.208-3.495Z" stroke="#000" stroke-width="2" stroke-linecap="round" stroke-linejoin="round"/><path d="M74.25 14.735 54 23.835l-20.25-9.1m40.5 54.53V51.1L94.5 42m-81 0 20.25 9.1v18.165M93.285 24.36 54 42.035 14.715 24.36M54 77.28V42" stroke="#000" stroke-width="2" stroke-linecap="round" stroke-linejoin="round"/></svg>