<svg width="76" height="82" fill="none" xmlns="http://www.w3.org/2000/svg"><path d="M66.5 37.583v27.334c0 1.812-.667 3.55-1.855 4.832-1.188 1.281-2.799 2.001-4.478 2.001H15.833c-1.68 0-3.29-.72-4.478-2.001-1.188-1.282-1.855-3.02-1.855-4.832V17.083c0-1.812.667-3.55 1.855-4.832 1.188-1.281 2.799-2.001 4.478-2.001h25.334" stroke="#000" stroke-width="2" stroke-linecap="round" stroke-linejoin="round"/><path d="M26.917 34.167c1.26 0 2.468-.54 3.358-1.501.891-.961 1.392-2.265 1.392-3.624 0-1.36-.5-2.663-1.392-3.624-.89-.961-2.099-1.501-3.358-1.501-1.26 0-2.468.54-3.36 1.5-.89.962-1.39 2.265-1.39 3.625 0 1.359.5 2.662 1.39 3.624.892.96 2.1 1.5 3.36 1.5ZM66.5 51.25 50.667 34.167 15.833 71.75M60.167 6.833v20.5m9.5-10.25h-19" stroke="#000" stroke-width="2" stroke-linecap="round" stroke-linejoin="round"/></svg>